<svg width="40" height="40" viewBox="0 0 40 40" fill="none" xmlns="http://www.w3.org/2000/svg">
<path d="M19.0463 39.5209C29.5652 39.5209 38.0925 30.9936 38.0925 20.4747C38.0925 9.95573 29.5652 1.42843 19.0463 1.42843C8.5273 1.42843 0 9.95573 0 20.4747C0 30.9936 8.5273 39.5209 19.0463 39.5209Z" fill="#0076FE"/>
<path d="M9.99353 20.7017C9.99353 18.8974 10.3839 17.2926 11.1646 15.8873C11.9453 14.4646 13.0297 13.3629 14.4177 12.5822C15.823 11.7841 17.4104 11.3851 19.1801 11.3851C21.3488 11.3851 23.2051 11.9576 24.7492 13.1027C26.2933 14.2478 27.3256 15.8092 27.8461 17.787H22.9536C22.5892 17.0237 22.0688 16.4425 21.3921 16.0434C20.7329 15.6444 19.9782 15.4449 19.128 15.4449C17.7574 15.4449 16.6471 15.922 15.797 16.8762C14.9468 17.8304 14.5218 19.1056 14.5218 20.7017C14.5218 22.2979 14.9468 23.5731 15.797 24.5273C16.6471 25.4815 17.7574 25.9586 19.128 25.9586C19.9782 25.9586 20.7329 25.7591 21.3921 25.36C22.0688 24.961 22.5892 24.3798 22.9536 23.6164H27.8461C27.3256 25.5943 26.2933 27.1557 24.7492 28.3008C23.2051 29.4285 21.3488 29.9923 19.1801 29.9923C17.4104 29.9923 15.823 29.602 14.4177 28.8213C13.0297 28.0232 11.9453 26.9215 11.1646 25.5162C10.3839 24.1109 9.99353 22.5061 9.99353 20.7017Z" fill="white"/>
<path d="M36.7831 5.95195C38.4267 5.95195 39.7591 4.61956 39.7591 2.97598C39.7591 1.33239 38.4267 0 36.7831 0C35.1395 0 33.8071 1.33239 33.8071 2.97598C33.8071 4.61956 35.1395 5.95195 36.7831 5.95195Z" fill="#0076FE"/>
</svg>
